<?xml version="1.0" encoding="UTF-8" standalone="no"?>
<!DOCTYPE svg PUBLIC "-//W3C//DTD SVG 1.1//EN"
 "http://www.w3.org/Graphics/SVG/1.1/DTD/svg11.dtd">
<!-- Generated by graphviz version 5.0.0 (20220707.1540)
 -->
<!-- Title: dependencies Pages: 1 -->
<svg width="1024pt" height="247pt"
 viewBox="0.00 0.00 1024.00 246.80" xmlns="http://www.w3.org/2000/svg" xmlns:xlink="http://www.w3.org/1999/xlink">
<g id="graph0" class="graph" transform="scale(1 1) rotate(0) translate(4 242.8)">
<title>dependencies</title>
<polygon fill="white" stroke="transparent" points="-4,4 -4,-242.8 1020,-242.8 1020,4 -4,4"/>
<text text-anchor="middle" x="508" y="-8.2" font-family="sans-serif" font-size="14.00">dependencies</text>
<g id="clust1" class="cluster">
<title>cluster_AppModule</title>
<polygon fill="none" stroke="black" stroke-dasharray="1,5" points="8,-32.8 8,-230.8 1008,-230.8 1008,-32.8 8,-32.8"/>
</g>
<g id="clust2" class="cluster">
<title>cluster_AppModule_declarations</title>
<polygon fill="none" stroke="black" points="300,-40.8 300,-92.8 1000,-92.8 1000,-40.8 300,-40.8"/>
</g>
<g id="clust8" class="cluster">
<title>cluster_AppModule_imports</title>
<polygon fill="none" stroke="black" points="148,-40.8 148,-92.8 292,-92.8 292,-40.8 148,-40.8"/>
</g>
<g id="clust10" class="cluster">
<title>cluster_AppModule_bootstrap</title>
<polygon fill="none" stroke="black" points="463,-170.8 463,-222.8 587,-222.8 587,-170.8 463,-170.8"/>
</g>
<g id="clust11" class="cluster">
<title>cluster_AppModule_providers</title>
<polygon fill="none" stroke="black" points="16,-40.8 16,-92.8 140,-92.8 140,-40.8 16,-40.8"/>
</g>
<!-- AppComponent -->
<g id="node1" class="node">
<title>AppComponent</title>
<polygon fill="#ffffb3" stroke="black" points="991.94,-84.8 886.06,-84.8 886.06,-48.8 991.94,-48.8 991.94,-84.8"/>
<text text-anchor="middle" x="939" y="-62.6" font-family="Times,serif" font-size="14.00">AppComponent</text>
</g>
<!-- AppModule -->
<g id="node6" class="node">
<title>AppModule</title>
<polygon fill="#8dd3c7" stroke="black" points="566.66,-149.8 563.66,-153.8 542.66,-153.8 539.66,-149.8 483.34,-149.8 483.34,-113.8 566.66,-113.8 566.66,-149.8"/>
<text text-anchor="middle" x="525" y="-127.6" font-family="Times,serif" font-size="14.00">AppModule</text>
</g>
<!-- AppComponent&#45;&gt;AppModule -->
<g id="edge1" class="edge">
<title>AppComponent&#45;&gt;AppModule</title>
<path fill="none" stroke="black" d="M939,-85.09C939,-107.01 939,-140.8 939,-140.8 939,-140.8 576.97,-140.8 576.97,-140.8"/>
<polygon fill="black" stroke="black" points="576.97,-137.3 566.97,-140.8 576.97,-144.3 576.97,-137.3"/>
</g>
<!-- CardsComponent -->
<g id="node2" class="node">
<title>CardsComponent</title>
<polygon fill="#ffffb3" stroke="black" points="867.99,-84.8 754.01,-84.8 754.01,-48.8 867.99,-48.8 867.99,-84.8"/>
<text text-anchor="middle" x="811" y="-62.6" font-family="Times,serif" font-size="14.00">CardsComponent</text>
</g>
<!-- CardsComponent&#45;&gt;AppModule -->
<g id="edge2" class="edge">
<title>CardsComponent&#45;&gt;AppModule</title>
<path fill="none" stroke="black" d="M811,-84.91C811,-104.14 811,-131.8 811,-131.8 811,-131.8 576.89,-131.8 576.89,-131.8"/>
<polygon fill="black" stroke="black" points="576.89,-128.3 566.89,-131.8 576.89,-135.3 576.89,-128.3"/>
</g>
<!-- HomeComponent -->
<g id="node3" class="node">
<title>HomeComponent</title>
<polygon fill="#ffffb3" stroke="black" points="735.55,-84.8 620.45,-84.8 620.45,-48.8 735.55,-48.8 735.55,-84.8"/>
<text text-anchor="middle" x="678" y="-62.6" font-family="Times,serif" font-size="14.00">HomeComponent</text>
</g>
<!-- HomeComponent&#45;&gt;AppModule -->
<g id="edge3" class="edge">
<title>HomeComponent&#45;&gt;AppModule</title>
<path fill="none" stroke="black" d="M678,-84.83C678,-101.2 678,-122.8 678,-122.8 678,-122.8 576.81,-122.8 576.81,-122.8"/>
<polygon fill="black" stroke="black" points="576.81,-119.3 566.81,-122.8 576.81,-126.3 576.81,-119.3"/>
</g>
<!-- MainSidebarComponent -->
<g id="node4" class="node">
<title>MainSidebarComponent</title>
<polygon fill="#ffffb3" stroke="black" points="601.65,-84.8 448.35,-84.8 448.35,-48.8 601.65,-48.8 601.65,-84.8"/>
<text text-anchor="middle" x="525" y="-62.6" font-family="Times,serif" font-size="14.00">MainSidebarComponent</text>
</g>
<!-- MainSidebarComponent&#45;&gt;AppModule -->
<g id="edge4" class="edge">
<title>MainSidebarComponent&#45;&gt;AppModule</title>
<path fill="none" stroke="black" d="M525,-84.91C525,-84.91 525,-103.79 525,-103.79"/>
<polygon fill="black" stroke="black" points="521.5,-103.79 525,-113.79 528.5,-103.79 521.5,-103.79"/>
</g>
<!-- NavbarComponent -->
<g id="node5" class="node">
<title>NavbarComponent</title>
<polygon fill="#ffffb3" stroke="black" points="430.03,-84.8 307.97,-84.8 307.97,-48.8 430.03,-48.8 430.03,-84.8"/>
<text text-anchor="middle" x="369" y="-62.6" font-family="Times,serif" font-size="14.00">NavbarComponent</text>
</g>
<!-- NavbarComponent&#45;&gt;AppModule -->
<g id="edge5" class="edge">
<title>NavbarComponent&#45;&gt;AppModule</title>
<path fill="none" stroke="black" d="M369,-84.83C369,-101.2 369,-122.8 369,-122.8 369,-122.8 473.19,-122.8 473.19,-122.8"/>
<polygon fill="black" stroke="black" points="473.19,-126.3 483.19,-122.8 473.19,-119.3 473.19,-126.3"/>
</g>
<!-- AppComponent  -->
<g id="node8" class="node">
<title>AppComponent </title>
<polygon fill="#80b1d3" stroke="black" points="579.44,-214.8 470.56,-214.8 470.56,-178.8 579.44,-178.8 579.44,-214.8"/>
<text text-anchor="middle" x="525" y="-192.6" font-family="Times,serif" font-size="14.00">AppComponent </text>
</g>
<!-- AppModule&#45;&gt;AppComponent  -->
<g id="edge7" class="edge">
<title>AppModule&#45;&gt;AppComponent </title>
<path fill="none" stroke="black" stroke-dasharray="1,5" d="M525,-149.91C525,-149.91 525,-168.79 525,-168.79"/>
<polygon fill="black" stroke="black" points="521.5,-168.79 525,-178.79 528.5,-168.79 521.5,-168.79"/>
</g>
<!-- AppRoutingModule -->
<g id="node7" class="node">
<title>AppRoutingModule</title>
<polygon fill="#8dd3c7" stroke="black" points="284.28,-84.8 281.28,-88.8 260.28,-88.8 257.28,-84.8 155.72,-84.8 155.72,-48.8 284.28,-48.8 284.28,-84.8"/>
<text text-anchor="middle" x="220" y="-62.6" font-family="Times,serif" font-size="14.00">AppRoutingModule</text>
</g>
<!-- AppRoutingModule&#45;&gt;AppModule -->
<g id="edge6" class="edge">
<title>AppRoutingModule&#45;&gt;AppModule</title>
<path fill="none" stroke="black" d="M220,-84.91C220,-104.14 220,-131.8 220,-131.8 220,-131.8 473.23,-131.8 473.23,-131.8"/>
<polygon fill="black" stroke="black" points="473.23,-135.3 483.23,-131.8 473.23,-128.3 473.23,-135.3"/>
</g>
<!-- ApiService -->
<g id="node9" class="node">
<title>ApiService</title>
<ellipse fill="#fdb462" stroke="black" cx="78" cy="-66.8" rx="54.46" ry="18"/>
<text text-anchor="middle" x="78" y="-62.6" font-family="Times,serif" font-size="14.00">ApiService</text>
</g>
<!-- ApiService&#45;&gt;AppModule -->
<g id="edge8" class="edge">
<title>ApiService&#45;&gt;AppModule</title>
<path fill="none" stroke="black" d="M78,-85.09C78,-107.01 78,-140.8 78,-140.8 78,-140.8 472.95,-140.8 472.95,-140.8"/>
<polygon fill="black" stroke="black" points="472.95,-144.3 482.95,-140.8 472.95,-137.3 472.95,-144.3"/>
</g>
</g>
</svg>
